<svg width="12" height="12" viewBox="0 0 12 12" fill="none" xmlns="http://www.w3.org/2000/svg">
<path d="M11.7099 5.28999L6.70994 0.289988C6.61484 0.198947 6.50269 0.127582 6.37994 0.0799879C6.13648 -0.0200301 5.8634 -0.0200301 5.61994 0.0799879C5.49719 0.127582 5.38505 0.198947 5.28994 0.289988L0.289941 5.28999C0.196703 5.38323 0.122742 5.49392 0.0722818 5.61574C0.0218215 5.73756 -0.00415039 5.86813 -0.00415039 5.99999C-0.00415039 6.26629 0.101638 6.52168 0.289941 6.70999C0.478245 6.89829 0.73364 7.00408 0.999941 7.00408C1.26624 7.00408 1.52164 6.89829 1.70994 6.70999L4.99994 3.40999V11C4.99994 11.2652 5.1053 11.5196 5.29283 11.7071C5.48037 11.8946 5.73472 12 5.99994 12C6.26516 12 6.51951 11.8946 6.70705 11.7071C6.89458 11.5196 6.99994 11.2652 6.99994 11V3.40999L10.2899 6.70999C10.3829 6.80372 10.4935 6.87811 10.6154 6.92888C10.7372 6.97965 10.8679 7.00579 10.9999 7.00579C11.132 7.00579 11.2627 6.97965 11.3845 6.92888C11.5064 6.87811 11.617 6.80372 11.7099 6.70999C11.8037 6.61703 11.8781 6.50642 11.9288 6.38456C11.9796 6.26271 12.0057 6.132 12.0057 5.99999C12.0057 5.86798 11.9796 5.73727 11.9288 5.61541C11.8781 5.49355 11.8037 5.38295 11.7099 5.28999Z" fill="black"/>
</svg>
